<svg xmlns="http://www.w3.org/2000/svg" viewBox="0 0 32 32"><g fill="none" fill-rule="evenodd"><path fill="#005AA2" d="M21.33 31.79c-2.23.35-4.6.27-6.94-.31a18.53 18.53 0 01-6.63-3.18 19.58 19.58 0 01-5.15-5.82A20.68 20.68 0 010 14.72h8.53c-.35 1.69-.38 3.5-.01 5.3a14.2 14.2 0 002.25 5.26 15.3 15.3 0 004.44 4.23 16.34 16.34 0 006.12 2.28"/><path fill="#E3007A" d="M10.67.21c2.23-.35 4.6-.27 6.94.31 2.33.58 4.6 1.66 6.63 3.18 2.03 1.53 3.8 3.5 5.15 5.82A20.68 20.68 0 0132 17.28h-8.53c.35-1.69.38-3.5.01-5.3a14.2 14.2 0 00-2.25-5.26 15.3 15.3 0 00-4.44-4.23A16.34 16.34 0 0010.67.21"/></g></svg>